<?xml version="1.0"?>
<svg xmlns="http://www.w3.org/2000/svg" id="Fill_Outline" data-name="Fill Outline" viewBox="0 0 64 64" width="512" height="512"><title>Startup icon</title><desc>Startup icon for website, application, printing, document, poster design, etc.</desc><metadata><?xpacket begin="﻿" id="W5M0MpCehiHzreSzNTczkc9d"?><x:xmpmeta xmlns:x="adobe:ns:meta/" x:xmptk="Adobe XMP Core 5.6-c145 79.163499, 2018/08/13-16:40:22        "><rdf:RDF xmlns:rdf="http://www.w3.org/1999/02/22-rdf-syntax-ns#"><rdf:Description xmlns:dc="http://purl.org/dc/elements/1.1/" rdf:about=""><dc:title><rdf:Alt><rdf:li xml:lang="x-default">Startup icon</rdf:li></rdf:Alt></dc:title><dc:description><rdf:Alt><rdf:li xml:lang="x-default">Startup icon for website, application, printing, document, poster design, etc.</rdf:li></rdf:Alt></dc:description><dc:subject><rdf:Bag><rdf:li xml:lang="x-default">Startup</rdf:li><rdf:li>idea</rdf:li><rdf:li>bulb</rdf:li><rdf:li>business</rdf:li><rdf:li>innovation</rdf:li><rdf:li>rocket</rdf:li><rdf:li>spaceship</rdf:li></rdf:Bag></dc:subject></rdf:Description></rdf:RDF></x:xmpmeta><?xpacket end="w"?></metadata><g id="Stroke_Close_copy" data-name="Stroke Close copy"><rect x="19" y="16" width="26" height="38" style="fill:#c4f236"/><path d="M24,18.44A16.5,16.5,0,0,1,24.19,16H19V54H45V51H40A16,16,0,0,1,24,35Z" style="fill:#a1d51c"/><path d="M61,54H45V34l12.8,9.6A8,8,0,0,1,61,50Z" style="fill:#a1d51c"/><path d="M3,54H19V34L6.2,43.6A8,8,0,0,0,3,50Z" style="fill:#7ab92d"/><path d="M32,3h0a6.09,6.09,0,0,0-4.83,2.38L19,16H45L36.83,5.38A6.09,6.09,0,0,0,32,3Z" style="fill:#fcbc04"/><rect x="45" y="50" width="16" height="4" style="fill:#57b7eb"/><rect x="3" y="50" width="16" height="4" style="fill:#4891d3"/><rect x="23" y="54" width="18" height="7" style="fill:#fcbc04"/><rect x="19" y="46" width="26" height="8" style="fill:#57b7eb"/><path d="M28.4,46H19v8H45V51H40A16,16,0,0,1,28.4,46Z" style="fill:#4891d3"/><path d="M30,57H41a0,0,0,0,1,0,0v4a0,0,0,0,1,0,0H26a0,0,0,0,1,0,0v0A4,4,0,0,1,30,57Z" style="fill:#f9e109"/><path d="M40,12h1.92L36.83,5.38A6.09,6.09,0,0,0,32,3V4A8,8,0,0,0,40,12Z" style="fill:#f9e109"/><path d="M6.2,43.6A8,8,0,0,0,3.6,47H8a8,8,0,0,0,8-8V36.25Z" style="fill:#a1d51c"/><path d="M27.32,8.69,31.68,3a6.06,6.06,0,0,0-4.51,2.36L19,16h5.19A16,16,0,0,1,27.32,8.69Z" style="fill:#e59730"/><path d="M34,41V37.24a8,8,0,1,0-10,0V41a2,2,0,0,0,0,4h1a4,4,0,0,0,8,0h1a2,2,0,0,0,0-4Z" style="fill:#a1d51c"/><path d="M25.14,46a4,4,0,0,0,7.72,0Z" style="fill:#4891d3"/><path d="M57.8,43.6,49,37v2a8,8,0,0,0,8,8h3.4A8,8,0,0,0,57.8,43.6Z" style="fill:#c4f236"/><path d="M40,29a8,8,0,1,0-13,6.24V39H37V35.24A8,8,0,0,0,40,29Z" style="fill:#fcbc04"/><rect x="25" y="39" width="14" height="4" rx="2" ry="2" style="fill:#4891d3"/><path d="M28,43h8a0,0,0,0,1,0,0v0a4,4,0,0,1-4,4h0a4,4,0,0,1-4-4v0A0,0,0,0,1,28,43Z" style="fill:#e59730"/><path d="M27,39H37a2,2,0,0,1,2,2v0a0,0,0,0,1,0,0H29a2,2,0,0,1-2-2v0A0,0,0,0,1,27,39Z" style="fill:#57b7eb"/><path d="M35.86,44H35a3,3,0,0,0-3,3A4,4,0,0,0,35.86,44Z" style="fill:#fcbc04"/><path d="M37,35a10,10,0,0,1-9.68-12.48A8,8,0,0,0,27,35.24V39H37V35.24l.28-.25Z" style="fill:#e59730"/><ellipse cx="35.59" cy="25.59" rx="1.5" ry="2" transform="translate(-7.67 32.66) rotate(-45)" style="fill:#f9e109"/></g><g id="Outline_copy" data-name="Outline copy"><path d="M58.4,42.8,46,33.5V30a1,1,0,0,0-2,0V45H40a1,1,0,0,0,0,2h4v6H20V47h4a1,1,0,0,0,0-2H20V17H33.61a1,1,0,0,0,0-2H21L28,6A5.1,5.1,0,0,1,36,6L43,15H39a1,1,0,0,0,0,2h5v7a1,1,0,0,0,2,0V16s0,0,0,0a.83.83,0,0,0-.07-.34s0,0,0,0a.87.87,0,0,0-.11-.18L37.62,4.77a7.09,7.09,0,0,0-11.24,0L18.21,15.39a.87.87,0,0,0-.11.18s0,0,0,0A.83.83,0,0,0,18,16s0,0,0,0V33.5L5.6,42.8A9.05,9.05,0,0,0,2,50v4a1,1,0,0,0,1,1H40v5H24V58a1,1,0,0,0-2,0v2H19a1,1,0,0,0,0,2H45a1,1,0,0,0,0-2H42V55H61a1,1,0,0,0,1-1V50A9.05,9.05,0,0,0,58.4,42.8ZM4,51H15a1,1,0,0,0,0-2H4.08A7,7,0,0,1,6.8,44.4L18,36V53H4Zm42,2V36l11.2,8.4A7,7,0,0,1,59.92,49H49a1,1,0,0,0,0,2H60v2Z" style="fill:#39519d"/><path d="M37.67,11.39,34.45,7.21a3.09,3.09,0,0,0-4.9,0,1,1,0,0,0,1.58,1.22,1.14,1.14,0,0,1,1.74,0l3.21,4.18a1,1,0,0,0,.8.39,1,1,0,0,0,.61-.21A1,1,0,0,0,37.67,11.39Z" style="fill:#39519d"/><path d="M5,35a1,1,0,0,0,1-1V28a1,1,0,0,0-2,0v6A1,1,0,0,0,5,35Z" style="fill:#39519d"/><path d="M13,24a1,1,0,0,0,1-1V17a1,1,0,0,0-2,0v6A1,1,0,0,0,13,24Z" style="fill:#39519d"/><circle cx="5" cy="24" r="1" style="fill:#39519d"/><circle cx="5" cy="20" r="1" style="fill:#39519d"/><circle cx="13" cy="27" r="1" style="fill:#39519d"/><path d="M58,27a1,1,0,0,0,1-1V20a1,1,0,0,0-2,0v6A1,1,0,0,0,58,27Z" style="fill:#39519d"/><circle cx="58" cy="30" r="1" style="fill:#39519d"/><circle cx="58" cy="34" r="1" style="fill:#39519d"/><path d="M51,21a1,1,0,0,0,1-1V14a1,1,0,0,0-2,0v6A1,1,0,0,0,51,21Z" style="fill:#39519d"/><circle cx="51" cy="10" r="1" style="fill:#39519d"/><circle cx="51" cy="24" r="1" style="fill:#39519d"/><circle cx="5" cy="38" r="1" style="fill:#39519d"/><circle cx="13" cy="13" r="1" style="fill:#39519d"/><path d="M5,17a1,1,0,0,0,1-1V10a1,1,0,0,0-2,0v6A1,1,0,0,0,5,17Z" style="fill:#39519d"/><circle cx="5" cy="6" r="1" style="fill:#39519d"/><circle cx="58" cy="15" r="1" style="fill:#39519d"/><circle cx="41" cy="20" r="1" style="fill:#39519d"/><circle cx="23" cy="20" r="1" style="fill:#39519d"/><circle cx="41" cy="50" r="1" style="fill:#39519d"/><circle cx="23" cy="50" r="1" style="fill:#39519d"/><circle cx="49" cy="46" r="1" style="fill:#39519d"/><circle cx="54" cy="46" r="1" style="fill:#39519d"/><circle cx="9" cy="46" r="1" style="fill:#39519d"/><circle cx="14" cy="46" r="1" style="fill:#39519d"/><path d="M27.63,34.46a7,7,0,1,1,8.74,0A1,1,0,1,0,37.63,36,9,9,0,1,0,26,35.7v2.48A3,3,0,0,0,27,44h.1a5,5,0,0,0,9.8,0H37a3,3,0,0,0,0-6H35V31.62l1.45-.73A1,1,0,0,0,37,30V27a1,1,0,0,0-1.24-1L32,27,28.24,26a1,1,0,0,0-.86.18A1,1,0,0,0,27,27v3a1,1,0,0,0,.55.89l1.45.73V35a1,1,0,0,0,2,0V31a1,1,0,0,0-.55-.89L29,29.38v-1.1l2.76.69a1,1,0,0,0,.48,0L35,28.28v1.1l-1.45.73A1,1,0,0,0,33,31v7H28V35.24A1,1,0,0,0,27.63,34.46ZM32,46a3,3,0,0,1-2.82-2h5.64A3,3,0,0,1,32,46Zm6-5a1,1,0,0,1-1,1H27a1,1,0,0,1,0-2H37A1,1,0,0,1,38,41Z" style="fill:#39519d"/></g></svg>
