<?xml version="1.0" encoding="iso-8859-1"?>
<!-- Generator: Adobe Illustrator 21.0.0, SVG Export Plug-In . SVG Version: 6.00 Build 0)  -->
<svg xmlns="http://www.w3.org/2000/svg" xmlns:xlink="http://www.w3.org/1999/xlink" version="1.1" id="Capa_1" x="0px" y="0px" viewBox="0 0 512 512" style="enable-background:new 0 0 512 512;" xml:space="preserve" width="512" height="512">
<g>
	<path style="fill:#7CFF00;" d="M497,241h-28.2c-2.761,0-5-2.239-5-5v-44.267c0-8.284-6.716-15-15-15h-44.267c-2.761,0-5-2.239-5-5   v-28.2c0-8.284-6.716-15-15-15h-28.2c-2.761,0-5-2.239-5-5V99.267c0-2.761,2.239-5,5-5h28.2c8.284,0,15-6.716,15-15v-48.2   c0-8.284-6.716-15-15-15h-48.2c-8.284,0-15,6.716-15,15v28.2c0,2.761-2.239,5-5,5h-28.2c-8.284,0-15,6.716-15,15v44.267   c0,2.761-2.239,5-5,5h-24.267c-2.761,0-5-2.239-5-5V79.267c0-8.284-6.716-15-15-15h-28.2c-2.761,0-5-2.239-5-5v-28.2   c0-8.284-6.716-15-15-15h-48.2c-8.284,0-15,6.716-15,15v48.2c0,8.284,6.716,15,15,15h28.2c2.761,0,5,2.239,5,5v24.267   c0,2.761-2.239,5-5,5h-28.2c-8.284,0-15,6.716-15,15v28.2c0,2.761-2.239,5-5,5H63.2c-8.284,0-15,6.716-15,15V236   c0,2.761-2.239,5-5,5H15c-8.284,0-15,6.716-15,15v160.667c0,8.284,6.716,15,15,15h48.2c8.284,0,15-6.716,15-15v-60.333   c0-2.761,2.239-5,5-5h24.267c2.761,0,5,2.239,5,5v76.4c0,8.284,6.716,15,15,15h28.2c2.761,0,5,2.239,5,5v28.2   c0,8.284,6.716,15,15,15h48.2c8.284,0,15-6.716,15-15v-48.2c0-8.284-6.716-15-15-15h-28.2c-2.761,0-5-2.239-5-5v-24.267   c0-2.761,2.239-5,5-5h120.667c2.761,0,5,2.239,5,5v24.267c0,2.761-2.239,5-5,5h-28.2c-8.284,0-15,6.716-15,15v48.2   c0,8.284,6.716,15,15,15h48.2c8.284,0,15-6.716,15-15v-28.2c0-2.761,2.239-5,5-5h28.2c8.284,0,15-6.716,15-15v-76.4   c0-2.761,2.239-5,5-5H428.8c2.761,0,5,2.239,5,5v60.333c0,8.284,6.716,15,15,15H497c8.284,0,15-6.716,15-15V256   C512,247.716,505.284,241,497,241z M176.733,284.2c0,2.761-2.239,5-5,5h-38.2c-2.761,0-5-2.239-5-5V246c0-2.761,2.239-5,5-5h38.2   c2.761,0,5,2.239,5,5V284.2z M383.466,284.2c0,2.761-2.239,5-5,5h-38.2c-2.761,0-5-2.239-5-5V246c0-2.761,2.239-5,5-5h38.2   c2.761,0,5,2.239,5,5V284.2z"/>
	<path style="fill:#00AA00;" d="M497,241h-28.2c-2.761,0-5-2.239-5-5v-44.267c0-8.284-6.716-15-15-15h-44.267c-2.761,0-5-2.239-5-5   v-28.2c0-8.284-6.716-15-15-15h-28.2c-2.761,0-5-2.239-5-5V99.267c0-2.761,2.239-5,5-5h28.2c8.284,0,15-6.716,15-15v-48.2   c0-8.284-6.716-15-15-15h-48.2c-8.284,0-15,6.716-15,15v28.2c0,2.761-2.239,5-5,5h-28.2c-8.284,0-15,6.716-15,15v44.267   c0,2.761-2.239,5-5,5H256v254.934h60.333c2.761,0,5,2.239,5,5v24.267c0,2.761-2.239,5-5,5h-28.2c-8.284,0-15,6.716-15,15v48.2   c0,8.284,6.716,15,15,15h48.2c8.284,0,15-6.716,15-15v-28.2c0-2.761,2.239-5,5-5h28.2c8.284,0,15-6.716,15-15v-76.4   c0-2.761,2.239-5,5-5H428.8c2.761,0,5,2.239,5,5v60.333c0,8.284,6.716,15,15,15H497c8.284,0,15-6.716,15-15V256   C512,247.716,505.284,241,497,241z M383.466,284.2c0,2.761-2.239,5-5,5h-38.2c-2.761,0-5-2.239-5-5V246c0-2.761,2.239-5,5-5h38.2   c2.761,0,5,2.239,5,5V284.2z"/>
</g>















</svg>
